<svg xmlns="http://www.w3.org/2000/svg" version="1.1" xmlns:xlink="http://www.w3.org/1999/xlink" xmlns:svgjs="http://svgjs.dev/svgjs" width="2000" height="1500" viewBox="0 0 2000 1500"><rect width="2000" height="1500" fill="#ed1703"></rect><g transform="matrix(0.75,0,0,0.75,249.090909090909,282.7536437246963)"><svg viewBox="0 0 396 247" data-background-color="#ed1703" preserveAspectRatio="xMidYMid meet" height="1247" width="2000" xmlns="http://www.w3.org/2000/svg" xmlns:xlink="http://www.w3.org/1999/xlink"><g id="tight-bounds" transform="matrix(1,0,0,1,0.2400000000000091,-0.09999999999999432)"><svg viewBox="0 0 395.52 247.2" height="247.2" width="395.52"><g><svg viewBox="0 0 395.52 247.2" height="247.2" width="395.52"><g transform="matrix(1,0,0,1,14.194246575342476,0)"><svg viewBox="0 0 367.13150684931503 247.2" height="247.2" width="367.13150684931503"><g><svg viewBox="0 0 367.13150684931503 247.2" height="247.2" width="367.13150684931503"><g><svg viewBox="0 0 367.13150684931503 247.2" height="247.2" width="367.13150684931503"><g><svg viewBox="0 0 367.13150684931503 247.2" height="247.2" width="367.13150684931503"><g id="textblocktransform"><svg viewBox="0 0 367.13150684931503 247.2" height="247.2" width="367.13150684931503" id="textblock"><g><svg viewBox="0 0 367.13150684931503 247.2" height="247.2" width="367.13150684931503"><g transform="matrix(1,0,0,1,0,0)"><svg width="367.13150684931503" viewBox="-0.1499999999999999 -40.8 66.05 44.8" height="247.2" data-palette-color="#ffffff"><path d="M18.4 0L3.85 0 3.85-36.8 18.4-36.8Q21.75-36.8 24.05-35.58 26.35-34.35 27.78-32 29.2-29.65 29.85-26.23 30.5-22.8 30.5-18.4L30.5-18.4Q30.5-12.6 29.15-8.5 27.8-4.4 25.1-2.2 22.4 0 18.4 0L18.4 0ZM7.85-33.2L7.85-3.55 18.1-3.55Q21.05-3.55 22.9-5.38 24.75-7.2 25.65-10.53 26.55-13.85 26.55-18.4L26.55-18.4Q26.55-22.5 26.05-25.33 25.55-28.15 24.53-29.9 23.5-31.65 21.9-32.43 20.3-33.2 18.1-33.2L18.1-33.2 7.85-33.2ZM41.3 0L37.3 0 37.3-36.8 51.8-36.8Q53.6-36.8 55.3-36.38 57-35.95 58.37-34.8 59.75-33.65 60.55-31.53 61.35-29.4 61.35-25.95L61.35-25.95Q61.35-22.95 60.7-21.03 60.05-19.1 59-17.98 57.95-16.85 56.72-16.32 55.5-15.8 54.35-15.6L54.35-15.6 61.9 0 57.85 0 50.7-15.05Q49.9-15.05 48.7-15.1 47.5-15.15 46.15-15.15 44.8-15.15 43.52-15.2 42.25-15.25 41.3-15.25L41.3-15.25 41.3 0ZM41.3-33.2L41.3-18.3 51.2-18.3Q52.5-18.3 53.6-18.6 54.7-18.9 55.55-19.73 56.4-20.55 56.9-22.05 57.4-23.55 57.4-25.95L57.4-25.95Q57.4-28.25 56.9-29.68 56.4-31.1 55.52-31.88 54.65-32.65 53.55-32.93 52.45-33.2 51.2-33.2L51.2-33.2 41.3-33.2Z" opacity="1" transform="matrix(1,0,0,1,0,0)" fill="#ffffff" class="wordmark-text-0" data-fill-palette-color="primary" id="text-0"></path></svg></g></svg></g></svg></g></svg></g></svg></g></svg></g></svg></g></svg></g><defs></defs></svg><rect width="395.52" height="247.2" fill="none" stroke="none" visibility="hidden"></rect></g></svg></g></svg>